<?xml version="1.0" ?><!DOCTYPE svg  PUBLIC '-//W3C//DTD SVG 1.1//EN'  'http://www.w3.org/Graphics/SVG/1.1/DTD/svg11.dtd'><svg height="512px" style="enable-background:new 0 0 512 512;" version="1.1" viewBox="0 0 512 512" width="512px" xml:space="preserve" xmlns="http://www.w3.org/2000/svg" xmlns:xlink="http://www.w3.org/1999/xlink"><g id="A_-_28_x2C__staff_x2C__security_x2C__friendzone_x2C__gang"><g><polygon points="362.17,232.322 370.16,246.9 378.827,262.716 386.475,255.07 366.742,228.154   "/><polygon points="209.773,282.236 237.302,332.464 251.865,317.926 219.313,273.508   "/><polygon points="302.493,282.155 293.043,273.507 260.542,317.849 273.465,329.912   "/><polygon points="401.742,261.149 419.304,232.236 414.851,228.159 395.151,254.992   "/><path d="M314.616,163.36l-0.022-0.089l-20.234-9.747c-3.492,5.111-9.332,8.273-15.649,8.273h-68.375    c-0.448,0-0.894-0.012-1.34-0.035c-0.384-0.018-0.765-0.048-1.145-0.083c-0.046-0.004-0.092-0.005-0.138-0.01    c-2.658-0.251-5.206-0.885-7.593-1.839c-0.867,4.043-1.305,8.174-1.305,12.327c0,16.987,6.105,38.668,15.555,55.237    c8.081,14.167,22.087,31.055,42.928,31.055c20.847,0,34.854-16.888,42.936-31.056c9.45-16.568,15.557-38.249,15.557-55.236    C315.791,168.174,315.447,166.765,314.616,163.36z M252.234,196.299c1.812-0.082,3.343,1.321,3.424,3.13l0.562,12.515    c0.001,0.05,0.004,0.095,0.008,0.134c0.623-0.09,1.886-0.631,2.876-1.954c1.086-1.449,3.143-1.744,4.592-0.658    c1.449,1.086,1.744,3.142,0.658,4.591c-2.142,2.858-5.402,4.584-8.347,4.584c-0.697,0-1.376-0.096-2.019-0.297    c-2.596-0.813-4.212-3.105-4.323-6.133l-0.561-12.487C249.024,197.914,250.425,196.381,252.234,196.299z M269.822,232.133    c-4.051,2.183-8.186,3.273-12.369,3.273c-4.162,0-8.375-1.079-12.611-3.239c-1.613-0.823-2.255-2.798-1.432-4.412    s2.797-2.257,4.412-1.432c6.553,3.341,12.732,3.351,18.892,0.034c1.592-0.858,3.582-0.262,4.441,1.333    C272.014,229.286,271.417,231.275,269.822,232.133z"/><path d="M120.517,215.492c23.766,0,36.729-36.151,36.729-54.725c0-20.249-16.477-36.723-36.729-36.723    c-20.267,0-36.755,16.474-36.755,36.723C83.762,179.34,96.735,215.492,120.517,215.492z"/><path d="M391.52,215.492c23.764,0,36.725-36.151,36.725-54.725c0-20.249-16.474-36.723-36.725-36.723    c-20.269,0-36.76,16.474-36.76,36.723C354.76,179.34,367.736,215.492,391.52,215.492z"/><path d="M199.367,152.147c0.08,0.04,0.165,0.063,0.241,0.109c2.823,1.682,5.971,2.676,9.185,2.918    c0.077,0.005,0.153,0.013,0.229,0.018c0.437,0.028,0.874,0.045,1.313,0.045h68.375c4.875,0,9.315-2.882,11.313-7.342    c0.296-0.664,0.811-1.194,1.443-1.535c0.137-0.074,0.273-0.15,0.423-0.205c0.002-0.001,0.005-0.001,0.009-0.002    c0.193-0.07,0.393-0.119,0.594-0.152c0.063-0.01,0.128-0.01,0.193-0.017c0.11-0.011,0.22-0.029,0.33-0.029    c0.025,0,0.05,0.008,0.074,0.008c0.156,0.004,0.31,0.027,0.463,0.052c0.074,0.013,0.15,0.016,0.225,0.034    c0.227,0.054,0.447,0.128,0.661,0.231l20.464,9.85l0.127-10.518l-23.896-21.644c-0.385-0.349-0.682-0.784-0.867-1.271    c-0.213-0.569-0.542-1.396-0.907-2.006c-0.021-0.034-0.04-0.068-0.061-0.103c-2.571-4.677-7.491-7.582-12.837-7.582h-87.207    v21.115C189.254,141.744,193.307,148.435,199.367,152.147z M206.366,134.288h45.454c1.811,0,3.28,1.469,3.28,3.28    c0,1.812-1.469,3.28-3.28,3.28h-45.454c-1.812,0-3.28-1.468-3.28-3.28C203.086,135.757,204.555,134.288,206.366,134.288z"/><polygon points="264.129,330.907 256.176,322.91 248.226,330.908 256.176,338.859   "/><path d="M308.065,285.616l-31.09,51.148c-0.513,0.843-1.377,1.411-2.355,1.545c-0.149,0.021-0.298,0.031-0.447,0.031    c-0.056,0-0.108-0.013-0.163-0.016c-0.086-0.005-0.17-0.013-0.256-0.023c-0.143-0.02-0.282-0.047-0.42-0.084    c-0.081-0.021-0.16-0.042-0.239-0.069c-0.146-0.051-0.286-0.117-0.425-0.188c-0.063-0.032-0.126-0.058-0.187-0.094    c-0.194-0.117-0.38-0.25-0.55-0.407l-2.626-2.453l-10.813,10.812c-0.615,0.615-1.449,0.96-2.319,0.96l0,0    c-0.87,0-1.704-0.346-2.319-0.961l-10.313-10.314l-4.7,4.691c-0.169,0.17-0.358,0.313-0.557,0.439    c-0.067,0.044-0.139,0.074-0.208,0.111c-0.137,0.074-0.275,0.143-0.421,0.196c-0.086,0.032-0.174,0.055-0.262,0.08    c-0.14,0.038-0.28,0.067-0.424,0.088c-0.092,0.013-0.184,0.022-0.277,0.027c-0.057,0.003-0.112,0.017-0.168,0.017    c-0.155,0-0.31-0.011-0.466-0.033c-1.021-0.146-1.915-0.765-2.41-1.671l-29.483-53.793l-10.35,4.026l62.357,105.985l62.34-105.945    L308.065,285.616z"/><path d="M324.697,292.15L261.91,398.854h73.598v-54.232c0-1.812,1.469-3.279,3.279-3.279c1.812,0,3.28,1.468,3.28,3.279v54.372    h35.449v-86.079l-15.636-6.157L324.697,292.15z"/><path d="M424.877,235.697l-19.623,32.305c-0.512,0.844-1.377,1.413-2.355,1.547c-0.148,0.021-0.299,0.031-0.447,0.031    c-0.053,0-0.105-0.014-0.158-0.015c-0.09-0.005-0.178-0.015-0.268-0.026c-0.138-0.018-0.271-0.045-0.406-0.08    c-0.084-0.023-0.169-0.044-0.251-0.073c-0.142-0.05-0.276-0.113-0.408-0.182c-0.067-0.034-0.137-0.062-0.202-0.103    c-0.192-0.116-0.377-0.248-0.545-0.405l-9.352-8.734l-10.489,10.485c-0.171,0.17-0.358,0.314-0.558,0.441    c-0.064,0.042-0.135,0.071-0.202,0.107c-0.141,0.076-0.282,0.146-0.43,0.201c-0.083,0.029-0.166,0.052-0.251,0.075    c-0.145,0.04-0.289,0.071-0.439,0.093c-0.088,0.012-0.174,0.021-0.264,0.025c-0.059,0.003-0.115,0.018-0.176,0.018    c-0.153,0-0.309-0.011-0.463-0.033c-1.023-0.146-1.916-0.765-2.412-1.671l-18.611-33.96l-43.254,16.972v27.871l10.905,4.294    c0.187,0.053,0.368,0.126,0.548,0.216l9.198,3.621v-16.229c0-1.813,1.469-3.28,3.28-3.28s3.279,1.468,3.279,3.28v18.813    l23.746,9.348l14.818,5.822h61.95v-33.982c0-1.813,1.469-3.28,3.28-3.28c1.811,0,3.279,1.468,3.279,3.28v34.123h20.65v-53.896    L424.877,235.697z"/><path d="M171.483,272.488c0-1.813,1.468-3.28,3.28-3.28c1.811,0,3.28,1.468,3.28,3.28v16.236l20.681-8.138v-27.871l-43.28-16.973    l-18.582,33.958c-0.496,0.906-1.388,1.524-2.409,1.673c-0.157,0.022-0.313,0.033-0.468,0.033c-0.057,0-0.111-0.014-0.168-0.017    c-0.092-0.005-0.182-0.015-0.272-0.027c-0.146-0.02-0.289-0.05-0.43-0.09c-0.087-0.023-0.171-0.046-0.255-0.077    c-0.148-0.054-0.289-0.123-0.429-0.199c-0.067-0.036-0.137-0.065-0.202-0.107c-0.2-0.127-0.388-0.271-0.559-0.439l-10.518-10.489    l-9.322,8.731c-0.167,0.157-0.352,0.29-0.543,0.407c-0.067,0.04-0.139,0.069-0.208,0.104c-0.131,0.067-0.262,0.13-0.402,0.179    c-0.084,0.03-0.169,0.052-0.256,0.074c-0.133,0.036-0.267,0.063-0.404,0.081c-0.088,0.012-0.177,0.021-0.267,0.026    c-0.055,0.001-0.108,0.015-0.162,0.015c-0.148,0-0.296-0.011-0.445-0.03c-0.979-0.135-1.845-0.702-2.357-1.548l-19.623-32.305    l-43.408,17.02v53.895H64.44v-34.123c0-1.813,1.468-3.28,3.28-3.28c1.811,0,3.28,1.468,3.28,3.28v33.982h61.945l38.537-15.165    V272.488z"/><polygon points="92.733,232.236 110.292,261.144 116.857,254.994 97.185,228.161   "/><polygon points="125.722,255.256 133.205,262.719 149.839,232.319 145.29,228.158 125.534,255.068   "/><path d="M134.839,312.898v86.096h35.45v-54.372c0-1.812,1.468-3.279,3.28-3.279c1.811,0,3.28,1.468,3.28,3.279v54.232h73.591    L187.63,292.102L134.839,312.898z"/></g></g><g id="Layer_1"/></svg>